<svg width="125" height="24" viewBox="0 0 125 24" fill="none" xmlns="http://www.w3.org/2000/svg">
<path d="M28.0558 24H37.7441L13.7442 0H4.05585L28.0558 24Z" fill="#94A3B8"/>
<path d="M18.7216 1.22787e-06L41.8572 23.1355V0H35.5963V7.30432L28.2919 0L18.7216 1.22787e-06Z" fill="#94A3B8"/>
<path d="M0 0.803589V24H6.26086V16.6957L13.5651 24H23.1965L0 0.803589Z" fill="#94A3B8"/>
<path d="M54.2029 7.3916L50.7224 18H47.9187L52.6736 5.20313H54.4578L54.2029 7.3916ZM57.0945 18L53.6052 7.3916L53.324 5.20313H55.1257L59.907 18H57.0945ZM56.9363 13.2363V15.3018H50.1775V13.2363H56.9363ZM63.4666 10.5645V18H60.9353V8.49024H63.3171L63.4666 10.5645ZM66.3318 8.42871L66.2878 10.7754C66.1648 10.7578 66.0154 10.7432 65.8396 10.7314C65.6697 10.7139 65.5144 10.7051 65.3738 10.7051C65.0164 10.7051 64.7058 10.752 64.4421 10.8457C64.1843 10.9336 63.9675 11.0654 63.7917 11.2412C63.6218 11.417 63.4929 11.6309 63.405 11.8828C63.323 12.1348 63.2761 12.4219 63.2644 12.7441L62.7546 12.5859C62.7546 11.9707 62.8162 11.4053 62.9392 10.8896C63.0623 10.3682 63.241 9.91406 63.4753 9.52734C63.7156 9.14063 64.0085 8.8418 64.3542 8.63086C64.6999 8.41992 65.0955 8.31445 65.5408 8.31445C65.6814 8.31445 65.8249 8.32617 65.9714 8.34961C66.1179 8.36719 66.238 8.39356 66.3318 8.42871ZM72.6248 8.49024V10.2832H67.0876V8.49024H72.6248ZM68.4587 6.14356H70.99V15.1348C70.99 15.4102 71.0251 15.6211 71.0955 15.7676C71.1716 15.9141 71.283 16.0166 71.4294 16.0752C71.5759 16.1279 71.7605 16.1543 71.9832 16.1543C72.1414 16.1543 72.282 16.1484 72.405 16.1367C72.5339 16.1191 72.6423 16.1016 72.7302 16.084L72.739 17.9473C72.5222 18.0176 72.2878 18.0732 72.0359 18.1143C71.7839 18.1553 71.5056 18.1758 71.2009 18.1758C70.6443 18.1758 70.158 18.085 69.7419 17.9033C69.3318 17.7158 69.0154 17.417 68.7927 17.0068C68.5701 16.5967 68.4587 16.0576 68.4587 15.3896V6.14356ZM78.8386 15.3281L81.8533 5.20313H84.7888L80.3328 18H78.3992L78.8386 15.3281ZM76.0613 5.20313L79.0671 15.3281L79.5242 18H77.573L73.1433 5.20313H76.0613ZM89.8162 18.1758C89.0779 18.1758 88.4158 18.0586 87.8298 17.8242C87.2439 17.584 86.7458 17.2529 86.3357 16.8311C85.9314 16.4092 85.6208 15.9199 85.404 15.3633C85.1873 14.8008 85.0789 14.2031 85.0789 13.5703V13.2188C85.0789 12.498 85.1814 11.8389 85.3865 11.2412C85.5915 10.6436 85.8845 10.125 86.2654 9.68555C86.6521 9.24609 87.1208 8.90918 87.6716 8.67481C88.2224 8.43457 88.8435 8.31445 89.5349 8.31445C90.2087 8.31445 90.8064 8.42578 91.3279 8.64844C91.8494 8.87109 92.2859 9.1875 92.6374 9.59766C92.9949 10.0078 93.2644 10.5 93.446 11.0742C93.6277 11.6426 93.7185 12.2754 93.7185 12.9727V14.0273H86.1599V12.3398H91.2312V12.1465C91.2312 11.7949 91.1667 11.4814 91.0378 11.2061C90.9148 10.9248 90.7273 10.7021 90.4753 10.5381C90.2234 10.374 89.9011 10.292 89.5085 10.292C89.1746 10.292 88.8874 10.3652 88.6472 10.5117C88.407 10.6582 88.2107 10.8633 88.0583 11.127C87.9119 11.3906 87.8005 11.7012 87.7244 12.0586C87.654 12.4102 87.6189 12.7969 87.6189 13.2188V13.5703C87.6189 13.9512 87.6716 14.3027 87.7771 14.625C87.8884 14.9473 88.0437 15.2256 88.2429 15.46C88.448 15.6943 88.6941 15.876 88.9812 16.0049C89.2742 16.1338 89.6052 16.1982 89.9744 16.1982C90.4314 16.1982 90.8562 16.1104 91.2488 15.9346C91.6472 15.7529 91.99 15.4805 92.2771 15.1172L93.5076 16.4531C93.3083 16.7402 93.0359 17.0156 92.6902 17.2793C92.3503 17.543 91.9402 17.7598 91.4597 17.9297C90.9792 18.0937 90.4314 18.1758 89.8162 18.1758ZM97.6384 10.5205V18H95.1072V8.49024H97.4802L97.6384 10.5205ZM97.2693 12.9111H96.5837C96.5837 12.208 96.6746 11.5752 96.8562 11.0127C97.0378 10.4443 97.2927 9.96094 97.6208 9.5625C97.949 9.1582 98.3386 8.85059 98.7898 8.63965C99.2468 8.42285 99.7566 8.31445 100.319 8.31445C100.764 8.31445 101.172 8.37891 101.541 8.50781C101.91 8.63672 102.226 8.8418 102.49 9.12305C102.76 9.4043 102.965 9.77637 103.105 10.2393C103.252 10.7021 103.325 11.2676 103.325 11.9355V18H100.776V11.9268C100.776 11.5049 100.718 11.1768 100.6 10.9424C100.483 10.708 100.31 10.5439 100.082 10.4502C99.8591 10.3506 99.5837 10.3008 99.2556 10.3008C98.9158 10.3008 98.6199 10.3682 98.3679 10.5029C98.1218 10.6377 97.9167 10.8252 97.7527 11.0654C97.5945 11.2998 97.4744 11.5752 97.3923 11.8916C97.3103 12.208 97.2693 12.5479 97.2693 12.9111ZM110.875 15.7236V8.49024H113.406V18H111.024L110.875 15.7236ZM111.156 13.7725L111.903 13.7549C111.903 14.3877 111.83 14.9766 111.683 15.5215C111.537 16.0605 111.317 16.5293 111.024 16.9277C110.731 17.3203 110.362 17.6279 109.917 17.8506C109.471 18.0674 108.947 18.1758 108.344 18.1758C107.881 18.1758 107.453 18.1113 107.06 17.9824C106.674 17.8477 106.34 17.6396 106.058 17.3584C105.783 17.0713 105.566 16.7051 105.408 16.2598C105.256 15.8086 105.179 15.2666 105.179 14.6338V8.49024H107.711V14.6514C107.711 14.9326 107.743 15.1699 107.807 15.3633C107.878 15.5566 107.974 15.7148 108.097 15.8379C108.22 15.9609 108.364 16.0488 108.528 16.1016C108.698 16.1543 108.885 16.1807 109.091 16.1807C109.612 16.1807 110.022 16.0752 110.321 15.8643C110.626 15.6533 110.84 15.3662 110.963 15.0029C111.092 14.6338 111.156 14.2236 111.156 13.7725ZM119.717 18.1758C118.978 18.1758 118.316 18.0586 117.73 17.8242C117.144 17.584 116.646 17.2529 116.236 16.8311C115.832 16.4092 115.521 15.9199 115.304 15.3633C115.088 14.8008 114.979 14.2031 114.979 13.5703V13.2188C114.979 12.498 115.082 11.8389 115.287 11.2412C115.492 10.6436 115.785 10.125 116.166 9.68555C116.552 9.24609 117.021 8.90918 117.572 8.67481C118.123 8.43457 118.744 8.31445 119.435 8.31445C120.109 8.31445 120.707 8.42578 121.228 8.64844C121.75 8.87109 122.186 9.1875 122.538 9.59766C122.895 10.0078 123.165 10.5 123.346 11.0742C123.528 11.6426 123.619 12.2754 123.619 12.9727V14.0273H116.06V12.3398H121.132V12.1465C121.132 11.7949 121.067 11.4814 120.938 11.2061C120.815 10.9248 120.628 10.7021 120.376 10.5381C120.124 10.374 119.802 10.292 119.409 10.292C119.075 10.292 118.788 10.3652 118.548 10.5117C118.307 10.6582 118.111 10.8633 117.959 11.127C117.812 11.3906 117.701 11.7012 117.625 12.0586C117.554 12.4102 117.519 12.7969 117.519 13.2188V13.5703C117.519 13.9512 117.572 14.3027 117.677 14.625C117.789 14.9473 117.944 15.2256 118.143 15.46C118.348 15.6943 118.594 15.876 118.882 16.0049C119.175 16.1338 119.506 16.1982 119.875 16.1982C120.332 16.1982 120.757 16.1104 121.149 15.9346C121.548 15.7529 121.89 15.4805 122.177 15.1172L123.408 16.4531C123.209 16.7402 122.936 17.0156 122.591 17.2793C122.251 17.543 121.841 17.7598 121.36 17.9297C120.88 18.0937 120.332 18.1758 119.717 18.1758Z" fill="#94A3B8"/>
</svg>
