<svg width="132" height="24" viewBox="0 0 132 24" fill="none" xmlns="http://www.w3.org/2000/svg">
<path d="M17.142 19.8635L1.08253 8.78565C-0.544904 7.6631 0.00831464 5.32578 2.03768 4.77614L19.106 0.143603C19.4676 0.0131395 19.855 -0.0292113 20.2363 0.0200682C20.6174 0.0693476 20.9814 0.208834 21.2979 0.426953C21.6144 0.645071 21.8743 0.935529 22.0561 1.27422C22.2378 1.61291 22.3362 1.99006 22.343 2.37438L21.3314 18.0839C21.2115 19.9485 18.7694 20.986 17.142 19.8635Z" fill="#94A3B8"/>
<path d="M12.0484 22.5978L2.58729 4.09547C2.37102 3.6722 2.27585 3.1974 2.31228 2.72347C2.3487 2.24954 2.51531 1.79487 2.79372 1.40961C3.07214 1.02435 3.45154 0.723466 3.8901 0.540134C4.32865 0.356802 4.80932 0.29815 5.27909 0.370651L22.8129 3.07676C23.2166 3.13907 23.5997 3.29631 23.9308 3.53555C24.2619 3.77479 24.5314 4.0892 24.7173 4.45291C24.9032 4.81663 25.0001 5.21928 25 5.62774C24.9999 6.0362 24.9029 6.43883 24.717 6.80248L16.6398 22.5987C16.4229 23.0208 16.0938 23.3749 15.6888 23.6221C15.2837 23.8693 14.8184 24 14.3438 24C13.8693 23.9999 13.404 23.869 12.999 23.6217C12.594 23.3742 12.2652 23.02 12.0484 22.5978Z" fill="#94A3B8"/>
<path d="M17.8156 6.54532L14.449 6.00012L10.3156 7.17771L11.9654 10.5643L15.8288 13.3616C15.9141 13.4226 16.0078 13.4693 16.1067 13.5001L17.5742 10.4891L17.8156 6.54532Z" fill="white"/>
<path d="M38.8047 14.6515C38.8047 14.423 38.7695 14.2179 38.6992 14.0363C38.6348 13.8488 38.5117 13.6788 38.3301 13.5265C38.1484 13.3683 37.8936 13.213 37.5654 13.0607C37.2373 12.9083 36.8125 12.7501 36.291 12.5861C35.7109 12.3986 35.1602 12.1876 34.6387 11.9532C34.123 11.7189 33.666 11.4464 33.2676 11.1359C32.875 10.8195 32.5645 10.4532 32.3359 10.0372C32.1133 9.62122 32.002 9.13782 32.002 8.58704C32.002 8.05383 32.1191 7.57044 32.3535 7.13684C32.5879 6.69739 32.916 6.32239 33.3379 6.01184C33.7598 5.69544 34.2578 5.45227 34.832 5.28235C35.4121 5.11243 36.0479 5.02747 36.7393 5.02747C37.6826 5.02747 38.5059 5.19739 39.209 5.53723C39.9121 5.87708 40.457 6.3429 40.8437 6.93469C41.2363 7.52649 41.4326 8.20325 41.4326 8.96497H38.8135C38.8135 8.58997 38.7344 8.26184 38.5762 7.98059C38.4238 7.69348 38.1895 7.4679 37.873 7.30383C37.5625 7.13977 37.1699 7.05774 36.6953 7.05774C36.2383 7.05774 35.8574 7.12805 35.5527 7.26868C35.248 7.40344 35.0195 7.58801 34.8672 7.82239C34.7148 8.0509 34.6387 8.30872 34.6387 8.59583C34.6387 8.81262 34.6914 9.00891 34.7969 9.18469C34.9082 9.36047 35.0723 9.52454 35.2891 9.67688C35.5059 9.82922 35.7725 9.97278 36.0889 10.1075C36.4053 10.2423 36.7715 10.3741 37.1875 10.5031C37.8848 10.714 38.4971 10.9513 39.0244 11.215C39.5576 11.4786 40.0029 11.7745 40.3604 12.1027C40.7178 12.4308 40.9873 12.8029 41.1689 13.2189C41.3506 13.6349 41.4414 14.1066 41.4414 14.6339C41.4414 15.1906 41.333 15.6886 41.1162 16.1281C40.8994 16.5675 40.5859 16.9396 40.1758 17.2443C39.7656 17.549 39.2764 17.7804 38.708 17.9386C38.1396 18.0968 37.5039 18.1759 36.8008 18.1759C36.168 18.1759 35.5439 18.0939 34.9287 17.9298C34.3135 17.7599 33.7539 17.505 33.25 17.1652C32.752 16.8253 32.3535 16.3917 32.0547 15.8644C31.7559 15.337 31.6064 14.713 31.6064 13.9923H34.252C34.252 14.3907 34.3135 14.7277 34.4365 15.0031C34.5596 15.2784 34.7324 15.5011 34.9551 15.671C35.1836 15.8409 35.4531 15.964 35.7637 16.0402C36.0801 16.1163 36.4258 16.1544 36.8008 16.1544C37.2578 16.1544 37.6328 16.09 37.9258 15.9611C38.2246 15.8322 38.4443 15.6534 38.585 15.4249C38.7314 15.1964 38.8047 14.9386 38.8047 14.6515ZM45.6074 10.4591V18.0001H43.0674V8.49036H45.4492L45.6074 10.4591ZM45.2559 12.9113H44.5527C44.5527 12.2491 44.6318 11.6398 44.79 11.0831C44.9541 10.5206 45.1914 10.0343 45.502 9.62415C45.8184 9.20813 46.208 8.88587 46.6709 8.65735C47.1338 8.42883 47.6699 8.31458 48.2793 8.31458C48.7012 8.31458 49.0879 8.37903 49.4395 8.50794C49.791 8.63098 50.0928 8.82727 50.3447 9.0968C50.6025 9.36047 50.8018 9.70618 50.9424 10.1339C51.083 10.5558 51.1533 11.0626 51.1533 11.6544V18.0001H48.6221V11.9357C48.6221 11.5021 48.5635 11.1681 48.4463 10.9337C48.3291 10.6993 48.1621 10.5353 47.9453 10.4415C47.7344 10.3478 47.4795 10.3009 47.1807 10.3009C46.8525 10.3009 46.5654 10.3683 46.3193 10.5031C46.0791 10.6378 45.8799 10.8253 45.7217 11.0656C45.5635 11.2999 45.4463 11.5753 45.3701 11.8917C45.2939 12.2081 45.2559 12.548 45.2559 12.9113ZM50.916 12.6212L50.0107 12.7355C50.0107 12.1144 50.0869 11.5372 50.2393 11.004C50.3975 10.4708 50.6289 10.0021 50.9336 9.59778C51.2441 9.19348 51.6279 8.88001 52.085 8.65735C52.542 8.42883 53.0693 8.31458 53.667 8.31458C54.124 8.31458 54.54 8.38196 54.915 8.51672C55.29 8.64563 55.6094 8.85364 55.873 9.14075C56.1426 9.422 56.3477 9.79114 56.4883 10.2482C56.6348 10.7052 56.708 11.2648 56.708 11.9269V18.0001H54.168V11.9269C54.168 11.4874 54.1094 11.1534 53.9922 10.9249C53.8809 10.6906 53.7168 10.5294 53.5 10.4415C53.2891 10.3478 53.0371 10.3009 52.7441 10.3009C52.4395 10.3009 52.1728 10.3624 51.9443 10.4855C51.7158 10.6027 51.5254 10.7667 51.373 10.9777C51.2207 11.1886 51.1064 11.4347 51.0303 11.7159C50.9541 11.9913 50.916 12.2931 50.916 12.6212ZM63.8008 15.8556V11.6193C63.8008 11.3146 63.751 11.0538 63.6514 10.837C63.5518 10.6144 63.3965 10.4415 63.1855 10.3185C62.9805 10.1954 62.7139 10.1339 62.3857 10.1339C62.1045 10.1339 61.8613 10.1837 61.6562 10.2833C61.4512 10.3771 61.293 10.5148 61.1816 10.6964C61.0703 10.8722 61.0146 11.0802 61.0146 11.3204H58.4834C58.4834 10.9161 58.5771 10.5323 58.7646 10.1691C58.9521 9.80579 59.2246 9.48645 59.582 9.21106C59.9394 8.92981 60.3643 8.71008 60.8564 8.55188C61.3545 8.39368 61.9111 8.31458 62.5264 8.31458C63.2646 8.31458 63.9209 8.43762 64.4951 8.68372C65.0693 8.92981 65.5205 9.29895 65.8486 9.79114C66.1826 10.2833 66.3496 10.8986 66.3496 11.6368V15.7062C66.3496 16.2277 66.3818 16.6554 66.4463 16.9894C66.5107 17.3175 66.6045 17.6046 66.7275 17.8507V18.0001H64.1699C64.0469 17.7423 63.9531 17.42 63.8887 17.0333C63.8301 16.6407 63.8008 16.2482 63.8008 15.8556ZM64.1348 12.2081L64.1523 13.6407H62.7373C62.4033 13.6407 62.1133 13.6788 61.8672 13.755C61.6211 13.8312 61.4189 13.9396 61.2607 14.0802C61.1025 14.215 60.9853 14.3732 60.9092 14.5548C60.8389 14.7365 60.8037 14.9357 60.8037 15.1525C60.8037 15.3693 60.8535 15.5656 60.9531 15.7413C61.0527 15.9113 61.1963 16.046 61.3838 16.1456C61.5713 16.2394 61.791 16.2863 62.043 16.2863C62.4238 16.2863 62.7549 16.2101 63.0361 16.0577C63.3174 15.9054 63.5342 15.7179 63.6865 15.4952C63.8447 15.2726 63.9268 15.0616 63.9326 14.8624L64.6006 15.9347C64.5068 16.1749 64.3779 16.424 64.2139 16.6818C64.0557 16.9396 63.8535 17.1827 63.6074 17.4113C63.3613 17.6339 63.0654 17.8185 62.7197 17.965C62.374 18.1056 61.9639 18.1759 61.4893 18.1759C60.8857 18.1759 60.3379 18.0558 59.8457 17.8156C59.3594 17.5695 58.9727 17.2325 58.6855 16.8048C58.4043 16.3712 58.2637 15.879 58.2637 15.3282C58.2637 14.8302 58.3574 14.3878 58.5449 14.0011C58.7324 13.6144 59.0078 13.2892 59.3711 13.0255C59.7402 12.756 60.2002 12.5538 60.751 12.4191C61.3018 12.2784 61.9404 12.2081 62.667 12.2081H64.1348ZM70.832 10.5646V18.0001H68.3008V8.49036H70.6826L70.832 10.5646ZM73.6973 8.42883L73.6533 10.7755C73.5303 10.7579 73.3809 10.7433 73.2051 10.7316C73.0352 10.714 72.8799 10.7052 72.7393 10.7052C72.3818 10.7052 72.0713 10.7521 71.8076 10.8458C71.5498 10.9337 71.333 11.0656 71.1572 11.2413C70.9873 11.4171 70.8584 11.631 70.7705 11.8829C70.6885 12.1349 70.6416 12.422 70.6299 12.7443L70.1201 12.5861C70.1201 11.9708 70.1816 11.4054 70.3047 10.8898C70.4277 10.3683 70.6064 9.91419 70.8408 9.52747C71.0811 9.14075 71.374 8.84192 71.7197 8.63098C72.0654 8.42004 72.4609 8.31458 72.9062 8.31458C73.0469 8.31458 73.1904 8.32629 73.3369 8.34973C73.4834 8.36731 73.6035 8.39368 73.6973 8.42883ZM79.9902 8.49036V10.2833H74.4531V8.49036H79.9902ZM75.8242 6.14368H78.3555V15.1349C78.3555 15.4103 78.3906 15.6212 78.4609 15.7677C78.5371 15.9142 78.6484 16.0167 78.7949 16.0753C78.9414 16.1281 79.126 16.1544 79.3486 16.1544C79.5068 16.1544 79.6475 16.1486 79.7705 16.1368C79.8994 16.1193 80.0078 16.1017 80.0957 16.0841L80.1045 17.9474C79.8877 18.0177 79.6533 18.0734 79.4014 18.1144C79.1494 18.1554 78.8711 18.1759 78.5664 18.1759C78.0098 18.1759 77.5234 18.0851 77.1074 17.9034C76.6973 17.7159 76.3809 17.4171 76.1582 17.007C75.9355 16.5968 75.8242 16.0577 75.8242 15.3898V6.14368ZM84.2266 5.20325V18.0001H81.5898V5.20325H84.2266ZM89.3242 10.67V12.7267H83.5059V10.67H89.3242ZM89.9394 5.20325V7.26868H83.5059V5.20325H89.9394ZM93.9824 8.49036V18.0001H91.4424V8.49036H93.9824ZM91.2842 6.01184C91.2842 5.6427 91.4131 5.33801 91.6709 5.09778C91.9287 4.85755 92.2744 4.73743 92.708 4.73743C93.1357 4.73743 93.4785 4.85755 93.7363 5.09778C94 5.33801 94.1318 5.6427 94.1318 6.01184C94.1318 6.38098 94 6.68567 93.7363 6.9259C93.4785 7.16614 93.1357 7.28626 92.708 7.28626C92.2744 7.28626 91.9287 7.16614 91.6709 6.9259C91.4131 6.68567 91.2842 6.38098 91.2842 6.01184ZM98.5527 10.5206V18.0001H96.0215V8.49036H98.3945L98.5527 10.5206ZM98.1836 12.9113H97.498C97.498 12.2081 97.5889 11.5753 97.7705 11.0128C97.9521 10.4445 98.207 9.96106 98.5351 9.56262C98.8633 9.15833 99.2529 8.85071 99.7041 8.63977C100.161 8.42297 100.671 8.31458 101.233 8.31458C101.679 8.31458 102.086 8.37903 102.455 8.50794C102.824 8.63684 103.141 8.84192 103.404 9.12317C103.674 9.40442 103.879 9.77649 104.02 10.2394C104.166 10.7023 104.239 11.2677 104.239 11.9357V18.0001H101.69V11.9269C101.69 11.505 101.632 11.1769 101.515 10.9425C101.397 10.7081 101.225 10.5441 100.996 10.4503C100.773 10.3507 100.498 10.3009 100.17 10.3009C99.8301 10.3009 99.5342 10.3683 99.2822 10.5031C99.0361 10.6378 98.831 10.8253 98.667 11.0656C98.5088 11.2999 98.3887 11.5753 98.3066 11.8917C98.2246 12.2081 98.1836 12.548 98.1836 12.9113ZM111.78 15.9259V4.50012H114.329V18.0001H112.035L111.78 15.9259ZM105.769 13.3595V13.1749C105.769 12.4484 105.851 11.7892 106.015 11.1974C106.179 10.5997 106.419 10.087 106.735 9.6593C107.052 9.23157 107.441 8.90051 107.904 8.66614C108.367 8.43176 108.895 8.31458 109.486 8.31458C110.043 8.31458 110.529 8.43176 110.945 8.66614C111.367 8.90051 111.725 9.2345 112.018 9.66809C112.316 10.0958 112.557 10.6027 112.738 11.1886C112.92 11.7687 113.052 12.4044 113.134 13.0958V13.5001C113.052 14.1622 112.92 14.7775 112.738 15.3458C112.557 15.9142 112.316 16.4122 112.018 16.84C111.725 17.2618 111.367 17.59 110.945 17.8243C110.523 18.0587 110.031 18.1759 109.469 18.1759C108.877 18.1759 108.35 18.0558 107.887 17.8156C107.43 17.5753 107.043 17.2384 106.727 16.8048C106.416 16.3712 106.179 15.8615 106.015 15.2755C105.851 14.6896 105.769 14.0509 105.769 13.3595ZM108.3 13.1749V13.3595C108.3 13.7521 108.329 14.1183 108.388 14.4581C108.452 14.798 108.555 15.0997 108.695 15.3634C108.842 15.6212 109.029 15.8234 109.258 15.9698C109.492 16.1105 109.776 16.1808 110.11 16.1808C110.544 16.1808 110.901 16.0841 111.183 15.8907C111.464 15.6915 111.678 15.4191 111.824 15.0734C111.977 14.7277 112.064 14.3292 112.088 13.8781V12.7267C112.07 12.3575 112.018 12.0265 111.93 11.7335C111.848 11.4347 111.725 11.1798 111.561 10.9689C111.402 10.7579 111.203 10.5939 110.963 10.4767C110.729 10.3595 110.45 10.3009 110.128 10.3009C109.8 10.3009 109.519 10.3771 109.284 10.5294C109.05 10.6759 108.859 10.8781 108.713 11.1359C108.572 11.3937 108.467 11.6984 108.396 12.0499C108.332 12.3956 108.3 12.7706 108.3 13.1749ZM120.684 18.1759C119.945 18.1759 119.283 18.0587 118.697 17.8243C118.111 17.5841 117.613 17.2531 117.203 16.8312C116.799 16.4093 116.488 15.92 116.271 15.3634C116.055 14.8009 115.946 14.2032 115.946 13.5704V13.2189C115.946 12.4982 116.049 11.839 116.254 11.2413C116.459 10.6437 116.752 10.1251 117.133 9.68567C117.52 9.24622 117.988 8.9093 118.539 8.67493C119.09 8.43469 119.711 8.31458 120.402 8.31458C121.076 8.31458 121.674 8.4259 122.195 8.64856C122.717 8.87122 123.153 9.18762 123.505 9.59778C123.862 10.0079 124.132 10.5001 124.313 11.0743C124.495 11.6427 124.586 12.2755 124.586 12.9728V14.0275H117.027V12.34H122.099V12.1466C122.099 11.795 122.034 11.4816 121.905 11.2062C121.782 10.9249 121.595 10.7023 121.343 10.5382C121.091 10.3741 120.769 10.2921 120.376 10.2921C120.042 10.2921 119.755 10.3654 119.515 10.5118C119.274 10.6583 119.078 10.8634 118.926 11.1271C118.779 11.3907 118.668 11.7013 118.592 12.0587C118.521 12.4103 118.486 12.797 118.486 13.2189V13.5704C118.486 13.9513 118.539 14.3029 118.645 14.6251C118.756 14.9474 118.911 15.2257 119.11 15.4601C119.315 15.6945 119.562 15.8761 119.849 16.005C120.142 16.1339 120.473 16.1984 120.842 16.1984C121.299 16.1984 121.724 16.1105 122.116 15.9347C122.515 15.7531 122.857 15.4806 123.145 15.1173L124.375 16.4532C124.176 16.7404 123.903 17.0157 123.558 17.2794C123.218 17.5431 122.808 17.7599 122.327 17.9298C121.847 18.0939 121.299 18.1759 120.684 18.1759ZM128.559 10.5646V18.0001H126.027V8.49036H128.409L128.559 10.5646ZM131.424 8.42883L131.38 10.7755C131.257 10.7579 131.107 10.7433 130.932 10.7316C130.762 10.714 130.606 10.7052 130.466 10.7052C130.108 10.7052 129.798 10.7521 129.534 10.8458C129.276 10.9337 129.06 11.0656 128.884 11.2413C128.714 11.4171 128.585 11.631 128.497 11.8829C128.415 12.1349 128.368 12.422 128.356 12.7443L127.847 12.5861C127.847 11.9708 127.908 11.4054 128.031 10.8898C128.154 10.3683 128.333 9.91419 128.567 9.52747C128.808 9.14075 129.101 8.84192 129.446 8.63098C129.792 8.42004 130.187 8.31458 130.633 8.31458C130.773 8.31458 130.917 8.32629 131.063 8.34973C131.21 8.36731 131.33 8.39368 131.424 8.42883Z" fill="#94A3B8"/>
</svg>
